<mxfile host="app.diagrams.net" modified="2023-02-13T19:32:04.949Z" agent="5.0 (Windows NT 10.0; Win64; x64) AppleWebKit/537.36 (KHTML, like Gecko) Chrome/109.0.0.0 Safari/537.36" etag="LZYVbuAtIJ3yupTwTbLn" version="20.8.20" type="github">
  <diagram name="Página-1" id="H3J9FWXN0q95DTH0rRs8">
    <mxGraphModel dx="1235" dy="728" grid="1" gridSize="10" guides="1" tooltips="1" connect="1" arrows="1" fold="1" page="1" pageScale="1" pageWidth="1654" pageHeight="1169" background="none" math="0" shadow="0">
      <root>
        <mxCell id="0" />
        <mxCell id="1" parent="0" />
        <mxCell id="3mSW8cx6iBZY5WVpWIEB-1" value="PEDIDO" style="whiteSpace=wrap;html=1;align=center;" vertex="1" parent="1">
          <mxGeometry x="1270" y="540" width="100" height="40" as="geometry" />
        </mxCell>
        <mxCell id="3mSW8cx6iBZY5WVpWIEB-14" style="edgeStyle=orthogonalEdgeStyle;rounded=0;orthogonalLoop=1;jettySize=auto;html=1;exitX=0.5;exitY=0;exitDx=0;exitDy=0;entryX=0.5;entryY=1;entryDx=0;entryDy=0;endArrow=none;endFill=0;" edge="1" parent="1" source="3mSW8cx6iBZY5WVpWIEB-4" target="3mSW8cx6iBZY5WVpWIEB-8">
          <mxGeometry relative="1" as="geometry" />
        </mxCell>
        <mxCell id="3mSW8cx6iBZY5WVpWIEB-4" value="EN PREPARACIÓN" style="whiteSpace=wrap;html=1;align=center;" vertex="1" parent="1">
          <mxGeometry x="1070" y="710" width="100" height="40" as="geometry" />
        </mxCell>
        <mxCell id="3mSW8cx6iBZY5WVpWIEB-13" style="edgeStyle=orthogonalEdgeStyle;rounded=0;orthogonalLoop=1;jettySize=auto;html=1;exitX=0.5;exitY=0;exitDx=0;exitDy=0;entryX=0.5;entryY=1;entryDx=0;entryDy=0;endArrow=none;endFill=0;" edge="1" parent="1" source="3mSW8cx6iBZY5WVpWIEB-5" target="3mSW8cx6iBZY5WVpWIEB-8">
          <mxGeometry relative="1" as="geometry" />
        </mxCell>
        <mxCell id="3mSW8cx6iBZY5WVpWIEB-5" value="PREPARADO" style="whiteSpace=wrap;html=1;align=center;" vertex="1" parent="1">
          <mxGeometry x="1200" y="710" width="100" height="40" as="geometry" />
        </mxCell>
        <mxCell id="3mSW8cx6iBZY5WVpWIEB-12" style="edgeStyle=orthogonalEdgeStyle;rounded=0;orthogonalLoop=1;jettySize=auto;html=1;exitX=0.5;exitY=0;exitDx=0;exitDy=0;entryX=0.5;entryY=1;entryDx=0;entryDy=0;endArrow=none;endFill=0;" edge="1" parent="1" source="3mSW8cx6iBZY5WVpWIEB-6" target="3mSW8cx6iBZY5WVpWIEB-8">
          <mxGeometry relative="1" as="geometry" />
        </mxCell>
        <mxCell id="3mSW8cx6iBZY5WVpWIEB-6" value="ENVIADO" style="whiteSpace=wrap;html=1;align=center;" vertex="1" parent="1">
          <mxGeometry x="1330" y="710" width="100" height="40" as="geometry" />
        </mxCell>
        <mxCell id="3mSW8cx6iBZY5WVpWIEB-7" value="ENTREGADO" style="whiteSpace=wrap;html=1;align=center;" vertex="1" parent="1">
          <mxGeometry x="1460" y="710" width="100" height="40" as="geometry" />
        </mxCell>
        <mxCell id="3mSW8cx6iBZY5WVpWIEB-9" value="" style="edgeStyle=orthogonalEdgeStyle;rounded=0;orthogonalLoop=1;jettySize=auto;html=1;endArrow=none;endFill=0;shape=link;" edge="1" parent="1" source="3mSW8cx6iBZY5WVpWIEB-8" target="3mSW8cx6iBZY5WVpWIEB-1">
          <mxGeometry relative="1" as="geometry" />
        </mxCell>
        <mxCell id="3mSW8cx6iBZY5WVpWIEB-8" value="d" style="ellipse;whiteSpace=wrap;html=1;aspect=fixed;" vertex="1" parent="1">
          <mxGeometry x="1305" y="620" width="30" height="30" as="geometry" />
        </mxCell>
        <mxCell id="3mSW8cx6iBZY5WVpWIEB-11" value="⊂" style="edgeStyle=orthogonalEdgeStyle;rounded=0;orthogonalLoop=1;jettySize=auto;html=1;exitX=0.5;exitY=1;exitDx=0;exitDy=0;endArrow=none;endFill=0;entryX=0.5;entryY=0;entryDx=0;entryDy=0;entryPerimeter=0;" edge="1" parent="1" source="3mSW8cx6iBZY5WVpWIEB-8" target="3mSW8cx6iBZY5WVpWIEB-7">
          <mxGeometry x="-0.92" relative="1" as="geometry">
            <Array as="points">
              <mxPoint x="1320" y="680" />
              <mxPoint x="1510" y="680" />
            </Array>
            <mxPoint as="offset" />
          </mxGeometry>
        </mxCell>
        <mxCell id="3mSW8cx6iBZY5WVpWIEB-16" value="" style="edgeStyle=orthogonalEdgeStyle;rounded=0;orthogonalLoop=1;jettySize=auto;html=1;endArrow=none;endFill=0;" edge="1" parent="1" source="3mSW8cx6iBZY5WVpWIEB-15" target="3mSW8cx6iBZY5WVpWIEB-8">
          <mxGeometry relative="1" as="geometry" />
        </mxCell>
        <mxCell id="3mSW8cx6iBZY5WVpWIEB-15" value="estado" style="ellipse;whiteSpace=wrap;html=1;align=center;" vertex="1" parent="1">
          <mxGeometry x="1150" y="615" width="100" height="40" as="geometry" />
        </mxCell>
        <mxCell id="3mSW8cx6iBZY5WVpWIEB-21" value="" style="edgeStyle=orthogonalEdgeStyle;rounded=0;orthogonalLoop=1;jettySize=auto;html=1;endArrow=none;endFill=0;" edge="1" parent="1" source="3mSW8cx6iBZY5WVpWIEB-17" target="3mSW8cx6iBZY5WVpWIEB-19">
          <mxGeometry relative="1" as="geometry" />
        </mxCell>
        <mxCell id="3mSW8cx6iBZY5WVpWIEB-59" style="edgeStyle=orthogonalEdgeStyle;rounded=0;orthogonalLoop=1;jettySize=auto;html=1;entryX=0.5;entryY=1;entryDx=0;entryDy=0;endArrow=none;endFill=0;" edge="1" parent="1" source="3mSW8cx6iBZY5WVpWIEB-17" target="3mSW8cx6iBZY5WVpWIEB-24">
          <mxGeometry relative="1" as="geometry">
            <Array as="points">
              <mxPoint x="690" y="390" />
              <mxPoint x="1140" y="390" />
            </Array>
          </mxGeometry>
        </mxCell>
        <mxCell id="3mSW8cx6iBZY5WVpWIEB-17" value="USUARIO" style="whiteSpace=wrap;html=1;align=center;" vertex="1" parent="1">
          <mxGeometry x="590" y="310" width="100" height="40" as="geometry" />
        </mxCell>
        <mxCell id="3mSW8cx6iBZY5WVpWIEB-18" value="WEB" style="whiteSpace=wrap;html=1;align=center;" vertex="1" parent="1">
          <mxGeometry x="930" y="310" width="100" height="40" as="geometry" />
        </mxCell>
        <mxCell id="3mSW8cx6iBZY5WVpWIEB-22" value="" style="edgeStyle=orthogonalEdgeStyle;rounded=0;orthogonalLoop=1;jettySize=auto;html=1;endArrow=none;endFill=0;" edge="1" parent="1" source="3mSW8cx6iBZY5WVpWIEB-19" target="3mSW8cx6iBZY5WVpWIEB-18">
          <mxGeometry relative="1" as="geometry" />
        </mxCell>
        <mxCell id="3mSW8cx6iBZY5WVpWIEB-19" value="REGISTRARSE" style="shape=rhombus;perimeter=rhombusPerimeter;whiteSpace=wrap;html=1;align=center;" vertex="1" parent="1">
          <mxGeometry x="750" y="300" width="120" height="60" as="geometry" />
        </mxCell>
        <mxCell id="3mSW8cx6iBZY5WVpWIEB-29" value="" style="edgeStyle=orthogonalEdgeStyle;rounded=0;orthogonalLoop=1;jettySize=auto;html=1;endArrow=none;endFill=0;" edge="1" parent="1" source="3mSW8cx6iBZY5WVpWIEB-23" target="3mSW8cx6iBZY5WVpWIEB-27">
          <mxGeometry relative="1" as="geometry" />
        </mxCell>
        <mxCell id="3mSW8cx6iBZY5WVpWIEB-23" value="CARRITO" style="shape=ext;margin=3;double=1;whiteSpace=wrap;html=1;align=center;" vertex="1" parent="1">
          <mxGeometry x="1270" y="310" width="100" height="40" as="geometry" />
        </mxCell>
        <mxCell id="3mSW8cx6iBZY5WVpWIEB-25" value="" style="edgeStyle=orthogonalEdgeStyle;rounded=0;orthogonalLoop=1;jettySize=auto;html=1;endArrow=none;endFill=0;" edge="1" parent="1" source="3mSW8cx6iBZY5WVpWIEB-24" target="3mSW8cx6iBZY5WVpWIEB-18">
          <mxGeometry relative="1" as="geometry" />
        </mxCell>
        <mxCell id="3mSW8cx6iBZY5WVpWIEB-26" value="" style="edgeStyle=orthogonalEdgeStyle;rounded=0;orthogonalLoop=1;jettySize=auto;html=1;endArrow=none;endFill=0;shape=link;" edge="1" parent="1" source="3mSW8cx6iBZY5WVpWIEB-24" target="3mSW8cx6iBZY5WVpWIEB-23">
          <mxGeometry relative="1" as="geometry" />
        </mxCell>
        <mxCell id="3mSW8cx6iBZY5WVpWIEB-24" value="AÑADIR_AL" style="shape=rhombus;perimeter=rhombusPerimeter;whiteSpace=wrap;html=1;align=center;" vertex="1" parent="1">
          <mxGeometry x="1080" y="300" width="120" height="60" as="geometry" />
        </mxCell>
        <mxCell id="3mSW8cx6iBZY5WVpWIEB-28" value="" style="edgeStyle=orthogonalEdgeStyle;rounded=0;orthogonalLoop=1;jettySize=auto;html=1;endArrow=none;endFill=0;" edge="1" parent="1" source="3mSW8cx6iBZY5WVpWIEB-27" target="3mSW8cx6iBZY5WVpWIEB-1">
          <mxGeometry relative="1" as="geometry" />
        </mxCell>
        <mxCell id="3mSW8cx6iBZY5WVpWIEB-27" value="TRAMITAR_EL" style="shape=rhombus;perimeter=rhombusPerimeter;whiteSpace=wrap;html=1;align=center;" vertex="1" parent="1">
          <mxGeometry x="1260" y="410" width="120" height="60" as="geometry" />
        </mxCell>
        <mxCell id="3mSW8cx6iBZY5WVpWIEB-32" value="" style="edgeStyle=orthogonalEdgeStyle;rounded=0;orthogonalLoop=1;jettySize=auto;html=1;endArrow=none;endFill=0;" edge="1" parent="1" source="3mSW8cx6iBZY5WVpWIEB-31" target="3mSW8cx6iBZY5WVpWIEB-24">
          <mxGeometry relative="1" as="geometry" />
        </mxCell>
        <mxCell id="3mSW8cx6iBZY5WVpWIEB-31" value="PRODUCTO" style="whiteSpace=wrap;html=1;align=center;" vertex="1" parent="1">
          <mxGeometry x="1090" y="210" width="100" height="40" as="geometry" />
        </mxCell>
        <mxCell id="3mSW8cx6iBZY5WVpWIEB-37" style="edgeStyle=orthogonalEdgeStyle;rounded=0;orthogonalLoop=1;jettySize=auto;html=1;entryX=0.5;entryY=0;entryDx=0;entryDy=0;endArrow=none;endFill=0;" edge="1" parent="1" source="3mSW8cx6iBZY5WVpWIEB-33" target="3mSW8cx6iBZY5WVpWIEB-31">
          <mxGeometry relative="1" as="geometry" />
        </mxCell>
        <mxCell id="3mSW8cx6iBZY5WVpWIEB-33" value="&lt;u&gt;código&lt;/u&gt;" style="ellipse;whiteSpace=wrap;html=1;align=center;" vertex="1" parent="1">
          <mxGeometry x="940" y="120" width="100" height="40" as="geometry" />
        </mxCell>
        <mxCell id="3mSW8cx6iBZY5WVpWIEB-38" style="edgeStyle=orthogonalEdgeStyle;rounded=0;orthogonalLoop=1;jettySize=auto;html=1;endArrow=none;endFill=0;" edge="1" parent="1" source="3mSW8cx6iBZY5WVpWIEB-34" target="3mSW8cx6iBZY5WVpWIEB-31">
          <mxGeometry relative="1" as="geometry">
            <Array as="points">
              <mxPoint x="1080" y="140" />
              <mxPoint x="1140" y="140" />
            </Array>
          </mxGeometry>
        </mxCell>
        <mxCell id="3mSW8cx6iBZY5WVpWIEB-34" value="foto" style="ellipse;whiteSpace=wrap;html=1;align=center;" vertex="1" parent="1">
          <mxGeometry x="1030" y="80" width="100" height="40" as="geometry" />
        </mxCell>
        <mxCell id="3mSW8cx6iBZY5WVpWIEB-40" style="edgeStyle=orthogonalEdgeStyle;rounded=0;orthogonalLoop=1;jettySize=auto;html=1;endArrow=none;endFill=0;" edge="1" parent="1" source="3mSW8cx6iBZY5WVpWIEB-35">
          <mxGeometry relative="1" as="geometry">
            <mxPoint x="1140" y="190" as="targetPoint" />
            <Array as="points">
              <mxPoint x="1190" y="140" />
              <mxPoint x="1140" y="140" />
            </Array>
          </mxGeometry>
        </mxCell>
        <mxCell id="3mSW8cx6iBZY5WVpWIEB-35" value="breve&lt;br&gt;descripción" style="ellipse;whiteSpace=wrap;html=1;align=center;" vertex="1" parent="1">
          <mxGeometry x="1140" y="80" width="100" height="40" as="geometry" />
        </mxCell>
        <mxCell id="3mSW8cx6iBZY5WVpWIEB-41" style="edgeStyle=orthogonalEdgeStyle;rounded=0;orthogonalLoop=1;jettySize=auto;html=1;endArrow=none;endFill=0;" edge="1" parent="1" source="3mSW8cx6iBZY5WVpWIEB-36">
          <mxGeometry relative="1" as="geometry">
            <mxPoint x="1140" y="190" as="targetPoint" />
          </mxGeometry>
        </mxCell>
        <mxCell id="3mSW8cx6iBZY5WVpWIEB-36" value="precio" style="ellipse;whiteSpace=wrap;html=1;align=center;" vertex="1" parent="1">
          <mxGeometry x="1235" y="120" width="100" height="40" as="geometry" />
        </mxCell>
        <mxCell id="3mSW8cx6iBZY5WVpWIEB-48" style="edgeStyle=orthogonalEdgeStyle;rounded=0;orthogonalLoop=1;jettySize=auto;html=1;entryX=0;entryY=0;entryDx=0;entryDy=0;endArrow=none;endFill=0;" edge="1" parent="1" source="3mSW8cx6iBZY5WVpWIEB-42" target="3mSW8cx6iBZY5WVpWIEB-17">
          <mxGeometry relative="1" as="geometry">
            <Array as="points">
              <mxPoint x="460" y="280" />
              <mxPoint x="590" y="280" />
            </Array>
          </mxGeometry>
        </mxCell>
        <mxCell id="3mSW8cx6iBZY5WVpWIEB-42" value="dirección" style="ellipse;whiteSpace=wrap;html=1;align=center;" vertex="1" parent="1">
          <mxGeometry x="410" y="220" width="100" height="40" as="geometry" />
        </mxCell>
        <mxCell id="3mSW8cx6iBZY5WVpWIEB-49" value="" style="edgeStyle=orthogonalEdgeStyle;rounded=0;orthogonalLoop=1;jettySize=auto;html=1;endArrow=none;endFill=0;" edge="1" parent="1" source="3mSW8cx6iBZY5WVpWIEB-43" target="3mSW8cx6iBZY5WVpWIEB-17">
          <mxGeometry relative="1" as="geometry" />
        </mxCell>
        <mxCell id="3mSW8cx6iBZY5WVpWIEB-43" value="teléfono" style="ellipse;whiteSpace=wrap;html=1;align=center;" vertex="1" parent="1">
          <mxGeometry x="410" y="310" width="100" height="40" as="geometry" />
        </mxCell>
        <mxCell id="3mSW8cx6iBZY5WVpWIEB-50" style="edgeStyle=orthogonalEdgeStyle;rounded=0;orthogonalLoop=1;jettySize=auto;html=1;entryX=0;entryY=1;entryDx=0;entryDy=0;endArrow=none;endFill=0;" edge="1" parent="1" source="3mSW8cx6iBZY5WVpWIEB-44" target="3mSW8cx6iBZY5WVpWIEB-17">
          <mxGeometry relative="1" as="geometry">
            <Array as="points">
              <mxPoint x="460" y="380" />
              <mxPoint x="590" y="380" />
            </Array>
          </mxGeometry>
        </mxCell>
        <mxCell id="3mSW8cx6iBZY5WVpWIEB-44" value="&lt;u&gt;emai&lt;/u&gt;" style="ellipse;whiteSpace=wrap;html=1;align=center;" vertex="1" parent="1">
          <mxGeometry x="410" y="400" width="100" height="40" as="geometry" />
        </mxCell>
        <mxCell id="3mSW8cx6iBZY5WVpWIEB-51" value="" style="edgeStyle=orthogonalEdgeStyle;rounded=0;orthogonalLoop=1;jettySize=auto;html=1;endArrow=none;endFill=0;" edge="1" parent="1" source="3mSW8cx6iBZY5WVpWIEB-45" target="3mSW8cx6iBZY5WVpWIEB-17">
          <mxGeometry relative="1" as="geometry" />
        </mxCell>
        <mxCell id="3mSW8cx6iBZY5WVpWIEB-45" value="contraseña" style="ellipse;whiteSpace=wrap;html=1;align=center;" vertex="1" parent="1">
          <mxGeometry x="500" y="470" width="100" height="40" as="geometry" />
        </mxCell>
        <mxCell id="3mSW8cx6iBZY5WVpWIEB-47" value="" style="edgeStyle=orthogonalEdgeStyle;rounded=0;orthogonalLoop=1;jettySize=auto;html=1;endArrow=none;endFill=0;" edge="1" parent="1" source="3mSW8cx6iBZY5WVpWIEB-46" target="3mSW8cx6iBZY5WVpWIEB-17">
          <mxGeometry relative="1" as="geometry" />
        </mxCell>
        <mxCell id="3mSW8cx6iBZY5WVpWIEB-46" value="nombre&lt;br&gt;compuesto" style="ellipse;whiteSpace=wrap;html=1;align=center;" vertex="1" parent="1">
          <mxGeometry x="590" y="210" width="100" height="40" as="geometry" />
        </mxCell>
        <mxCell id="3mSW8cx6iBZY5WVpWIEB-55" style="edgeStyle=orthogonalEdgeStyle;rounded=0;orthogonalLoop=1;jettySize=auto;html=1;entryX=0.5;entryY=0;entryDx=0;entryDy=0;endArrow=none;endFill=0;" edge="1" parent="1" source="3mSW8cx6iBZY5WVpWIEB-52" target="3mSW8cx6iBZY5WVpWIEB-46">
          <mxGeometry relative="1" as="geometry">
            <Array as="points">
              <mxPoint x="510" y="190" />
              <mxPoint x="640" y="190" />
            </Array>
          </mxGeometry>
        </mxCell>
        <mxCell id="3mSW8cx6iBZY5WVpWIEB-52" value="nombre" style="ellipse;whiteSpace=wrap;html=1;align=center;" vertex="1" parent="1">
          <mxGeometry x="460" y="120" width="100" height="40" as="geometry" />
        </mxCell>
        <mxCell id="3mSW8cx6iBZY5WVpWIEB-57" value="" style="edgeStyle=orthogonalEdgeStyle;rounded=0;orthogonalLoop=1;jettySize=auto;html=1;endArrow=none;endFill=0;" edge="1" parent="1" source="3mSW8cx6iBZY5WVpWIEB-53" target="3mSW8cx6iBZY5WVpWIEB-46">
          <mxGeometry relative="1" as="geometry" />
        </mxCell>
        <mxCell id="3mSW8cx6iBZY5WVpWIEB-53" value="apellido" style="ellipse;whiteSpace=wrap;html=1;align=center;" vertex="1" parent="1">
          <mxGeometry x="590" y="120" width="100" height="40" as="geometry" />
        </mxCell>
        <mxCell id="3mSW8cx6iBZY5WVpWIEB-56" style="edgeStyle=orthogonalEdgeStyle;rounded=0;orthogonalLoop=1;jettySize=auto;html=1;entryX=0.5;entryY=0;entryDx=0;entryDy=0;endArrow=none;endFill=0;" edge="1" parent="1" source="3mSW8cx6iBZY5WVpWIEB-54" target="3mSW8cx6iBZY5WVpWIEB-46">
          <mxGeometry relative="1" as="geometry">
            <Array as="points">
              <mxPoint x="770" y="190" />
              <mxPoint x="640" y="190" />
            </Array>
          </mxGeometry>
        </mxCell>
        <mxCell id="3mSW8cx6iBZY5WVpWIEB-54" value="segundo&lt;br&gt;apellido" style="ellipse;whiteSpace=wrap;html=1;align=center;" vertex="1" parent="1">
          <mxGeometry x="720" y="120" width="100" height="40" as="geometry" />
        </mxCell>
        <mxCell id="3mSW8cx6iBZY5WVpWIEB-58" value="(0,1)" style="text;html=1;align=center;verticalAlign=middle;resizable=0;points=[];autosize=1;strokeColor=none;fillColor=none;" vertex="1" parent="1">
          <mxGeometry x="770" y="160" width="50" height="30" as="geometry" />
        </mxCell>
        <mxCell id="3mSW8cx6iBZY5WVpWIEB-61" value="vvv" style="ellipse;whiteSpace=wrap;html=1;align=center;" vertex="1" parent="1">
          <mxGeometry x="1420" y="210" width="100" height="40" as="geometry" />
        </mxCell>
        <mxCell id="3mSW8cx6iBZY5WVpWIEB-62" value="Attribute" style="ellipse;whiteSpace=wrap;html=1;align=center;dashed=1;" vertex="1" parent="1">
          <mxGeometry x="1420" y="290" width="100" height="40" as="geometry" />
        </mxCell>
      </root>
    </mxGraphModel>
  </diagram>
</mxfile>
